<?xml version="1.0" encoding="UTF-8"?>
<svg xmlns="http://www.w3.org/2000/svg" width="568" height="688">
<path d="

M 138 054
Q 136 75 144 100
Q 146 110 159 146
Q 170 183 172 193
L 183 233
L 194 275
L 205 317
L 215 358
Q 232 422 239 428
Q 244 441 278 449
Q 306 457 324 462
Q 349 468 366 471
Q 389 475 403 475

L 420 438
L 435 399
L 449 359
L 461 314
L 468 282
L 470 228
L 433 220
L 394 211
L 355 203
L 311 195
L 266 189
L 213 189
L 172 193
L 131 199

M 138 54
L 209 60

M 212 25
L 209 60
L 217 100
L 215 144
L 213 189

M 144 100
L 217 100
L 272 106

M 159 146
L 215 144
L 269 148
L 316 155
L 360 165
L 402 174
L 435 179

M 278 28
L 271 104
L 269 148
L 266 189
L 264 229
L 261 272
L 258 312
L 256 356
L 254 394
L 239 428

M 321 97
L 316 155
L 311 195
L 308 232
L 304 275
L 298 315
L 294 357
L 291 398
L 278 449
L 206 476

M 321 97
Q 365 100 360 165
L 355 203
L 350 240
L 344 283
L 340 323
L 336 365
L 331 408
L 324 462

M 402 174
L 394 211
L 388 250
L 381 293

M 433 107
L 435 179
L 433 220
L 429 262
L 419 308
L 407 348
L 396 387
L 383 427
L 366 471
L 352 503

" stroke-width="1.5" stroke="#000" fill="none" />
<path d="

M 63 294
L 67 335
L 75 377

M 97 247
L 104 287
L 113 329
L 124 369

M 131 199
L 139 239
L 149 280
L 161 322
L 175 362

" stroke-width="1.5" stroke="#000" fill="none" />
<path d="

M 97 247
L 139 239
L 183 233
L 264 229
L 308 232
L 350 240
L 388 250
L 429 262
L 468 282
Q 490 297 492 300

M 63 294
L 104 287
L 149 280
L 194 275
L 261 272
L 304 275
L 344 283
L 381 293
Q 405 303 419 308
Q 444 315 461 314
Q 480 311 492 300

M 67 335
L 113 329
L 161 322
L 205 317
L 258 312
L 298 315
L 340 323
L 407 348
L 449 359
Q 465 361 479 361

M 75 377
L 124 369
L 175 362
L 215 358
L 256 356
L 294 357
L 336 365
L 396 387
L 435 399
Q 480 407 489 413
Q 470 443 420 438
L 383 427
L 331 408
L 291 398
L 254 394

" stroke-width="1.5" stroke="#000" fill="none" />
</svg>
