<?xml version="1.0" encoding="UTF-8"?>
<svg xmlns="http://www.w3.org/2000/svg" width="568" height="788">
<path d="

M 138 154
Q 136 175 144 200
Q 146 210 159 246
Q 170 283 172 293
L 183 333
L 194 375
L 205 417
L 215 458
Q 232 522 239 528
Q 244 541 278 549
Q 306 557 324 562
Q 349 568 366 571
Q 389 575 403 575

L 420 538
L 435 499
L 449 459
L 461 414
L 468 382
L 470 328
L 433 320
L 394 311
L 355 303
L 311 295
L 266 289
L 213 289
L 172 293
L 131 299

M 138 154
L 209 160

M 212 125
L 209 160
L 217 200
L 215 244
L 213 289

M 144 200
L 217 200
L 272 206

M 159 246
L 215 244
L 269 248
L 316 255
L 360 265
L 402 274
L 435 279

M 278 128
L 271 204
L 269 248
L 266 289
L 264 329
L 261 372
L 258 412
L 256 456
L 254 494
L 239 528

M 321 197
L 316 255
L 311 295
L 308 332
L 304 375
L 298 415
L 294 457
L 291 498
L 278 549
L 206 576

M 321 197
L 360 265
L 355 303
L 350 340
L 344 383
L 340 423
L 336 465
L 331 508
L 324 562

M 402 274
L 394 311
L 388 350
L 381 393

M 433 207
L 435 279
L 433 320
L 429 362
L 419 408
L 407 448
L 396 487
L 383 527
L 366 571
L 352 603

" stroke-width="1" stroke="#000" fill="none" />
<path d="

M 63 394
L 67 435
L 75 477

M 97 347
L 104 387
L 113 429
L 124 469

M 131 299
L 139 339
L 149 380
L 161 422
L 175 462

" stroke-width="1" stroke="#000" fill="none" />
<path d="

M 97 347
L 139 339
L 183 333
L 264 329
L 308 332
L 350 340
L 388 350
L 429 362
L 468 382
L 492 400

M 63 394
L 104 387
L 149 380
L 194 375
L 261 372
L 304 375
L 344 383
L 381 393
L 419 408
L 461 414
L 492 400

M 67 435
L 113 429
L 161 422
L 205 417
L 258 412
L 298 415
L 340 423
L 407 448
L 449 459
L 479 461

M 75 477
L 124 469
L 175 462
L 215 458
L 256 456
L 294 457
L 336 465
L 396 487
L 435 499
L 489 513
L 420 538
L 383 527
L 331 508
L 291 498
L 254 494

" stroke-width="1" stroke="#000" fill="none" />
</svg>
